<svg width="354" height="320" viewBox="0 0 354 320" fill="none" xmlns="http://www.w3.org/2000/svg">
<path d="M233.138 261.766L232.515 262.687L233.497 263.209L277.311 286.501L269.395 313.509L247.492 301.129L247.483 301.124L247.474 301.12L215.309 283.802L214.682 283.465L214.157 283.948C200.022 296.974 183.056 306.231 163.932 310.399C95.3092 325.355 24.4311 269.068 5.92416 184.15C-12.5828 99.2314 28.4461 18.5562 97.0684 3.60075C165.691 -11.3547 236.569 44.9317 255.076 129.85C265.845 179.265 256.44 227.317 233.138 261.766ZM200.56 245.675L201.267 246.052L201.789 245.444C224.498 219.004 234.534 178.25 225.396 136.319C211.422 72.1998 157.708 29.0824 105.12 40.5434C52.5313 52.0044 21.6305 113.563 35.6045 177.681C49.5784 241.8 103.292 284.918 155.88 273.457C163.726 271.747 171.095 268.917 177.907 265.126L179.492 264.243L177.9 263.374L172.357 260.347L184.916 237.348L200.56 245.675Z" fill="white" stroke="black" stroke-width="2"/>
<path d="M255.134 267.877L301.902 36.9002L352.127 32.6206L279.374 279.587L255.134 267.877Z" fill="#AF2A2A" stroke="black" stroke-width="2"/>
<path d="M269.396 313.51L248.125 301.487L253.714 273.955L277.352 286.501L269.396 313.51Z" fill="#AF2A2A" stroke="black" stroke-width="2"/>
</svg>
